<?xml version="1.0" standalone="no"?><!DOCTYPE svg PUBLIC "-//W3C//DTD SVG 1.1//EN" "http://www.w3.org/Graphics/SVG/1.1/DTD/svg11.dtd"><svg t="1538296789625" class="icon_home" style="" viewBox="0 0 1024 1024" version="1.1" xmlns="http://www.w3.org/2000/svg" p-id="1228" xmlns:xlink="http://www.w3.org/1999/xlink" width="200" height="200"><defs><style type="text/css"></style></defs><path d="M950.857143 0H73.142857C32.182857 0 0 32.182857 0 73.142857v877.714286c0 40.96 32.182857 73.142857 73.142857 73.142857h877.714286c40.96 0 73.142857-32.182857 73.142857-73.142857V73.142857c0-40.96-32.182857-73.142857-73.142857-73.142857zM716.8 804.571429c0 7.314286-7.314286 14.628571-14.628571 14.628571h-131.657143c-7.314286 0-14.628571-7.314286-14.628572-14.628571v-117.028572h-87.771428v117.028572c0 7.314286-7.314286 14.628571-14.628572 14.628571h-131.657143c-7.314286 0-14.628571-7.314286-14.628571-14.628571V512c0-7.314286 7.314286-14.628571 14.628571-14.628571s14.628571 7.314286 14.628572 14.628571v277.942857h102.4v-117.028571c0-7.314286 7.314286-14.628571 14.628571-14.628572h117.028572c7.314286 0 14.628571 7.314286 14.628571 14.628572v117.028571h102.4V512c0-7.314286 7.314286-14.628571 14.628572-14.628571s14.628571 7.314286 14.628571 14.628571v292.571429z m127.268571-253.074286c-5.851429 5.851429-14.628571 5.851429-20.48 0L512 239.908571 200.411429 551.497143c-5.851429 5.851429-14.628571 5.851429-20.48 0s-5.851429-14.628571 0-20.48l321.828571-321.828572c5.851429-5.851429 14.628571-5.851429 20.48 0L687.542857 374.491429V321.828571c0-7.314286 7.314286-14.628571 14.628572-14.628571s14.628571 7.314286 14.628571 14.628571v81.92l127.268571 127.268572c5.851429 5.851429 5.851429 14.628571 0 20.48z" fill="red" p-id="1229"></path></svg>